<svg width="22" height="22" viewBox="0 0 22 22" fill="none" xmlns="http://www.w3.org/2000/svg">
<path d="M2.16147 7.18979C2.36293 6.98839 2.63614 6.87524 2.92101 6.87524C3.20588 6.87524 3.47909 6.98839 3.68055 7.18979L8.99841 12.5076L14.3163 7.18979C14.5189 6.99409 14.7903 6.88581 15.0719 6.88826C15.3536 6.8907 15.6231 7.00369 15.8223 7.20288C16.0215 7.40206 16.1344 7.67151 16.1369 7.9532C16.1393 8.23488 16.031 8.50625 15.8354 8.70887L9.75795 14.7863C9.55649 14.9877 9.28328 15.1008 8.99841 15.1008C8.71354 15.1008 8.44033 14.9877 8.23887 14.7863L2.16147 8.70887C1.96007 8.50741 1.84692 8.2342 1.84692 7.94933C1.84692 7.66446 1.96007 7.39125 2.16147 7.18979V7.18979Z" fill="#484848"/>
</svg>
